<svg aria-hidden="true" style="position: absolute; width: 0; height: 0; overflow: hidden;" version="1.1" xmlns="http://www.w3.org/2000/svg" xmlns:xlink="http://www.w3.org/1999/xlink">
<defs>
<symbol id="icon-logo" viewBox="0 0 32 32">
<path fill="#703bf7" style="fill: var(--color1, #703bf7)" d="M16 32c-8.836 0-16-7.164-16-16h16v16z"></path>
<path fill="#703bf7" style="fill: var(--color1, #703bf7)" d="M0 0c8.836 0 16 7.164 16 16h-16v-16z"></path>
<path fill="#703bf7" style="fill: var(--color1, #703bf7)" d="M16 32c8.836 0 16-7.164 16-16h-16v16z"></path>
<path fill="#703bf7" style="fill: var(--color1, #703bf7)" d="M32 16c0-8.836-7.164-16-16-16v16h16z"></path>
</symbol>
<symbol id="icon-bin" viewBox="0 0 32 32">
<path d="M4 10v20c0 1.1 0.9 2 2 2h18c1.1 0 2-0.9 2-2v-20h-22zM10 28h-2v-14h2v14zM14 28h-2v-14h2v14zM18 28h-2v-14h2v14zM22 28h-2v-14h2v14z"></path>
<path d="M26.5 4h-6.5v-2.5c0-0.825-0.675-1.5-1.5-1.5h-7c-0.825 0-1.5 0.675-1.5 1.5v2.5h-6.5c-0.825 0-1.5 0.675-1.5 1.5v2.5h26v-2.5c0-0.825-0.675-1.5-1.5-1.5zM18 4h-6v-1.975h6v1.975z"></path>
</symbol>
</defs>
</svg>
